<svg width="770" height="150" xmlns="http://www.w3.org/2000/svg" preserveAspectRatio="xMidYMid meet">
 <g>
  <title>background</title>
  <rect x="-1" y="-1" width="772" height="152" id="canvas_background" fill="none"/>
 </g>

 <g>
  <title>Layer 1</title>
  <path d="m103.44277,8.19559c-2.4,4.5 0.2,9.1 5.2,9.1c2.8,0 5.8,-2.8 5.8,-5.4c0,-3.8 -1.9,-5.6 -6,-5.6c-2.9,0 -4.2,0.5 -5,1.9z" id="svg_2" fill="#3398db"/>
  <path d="m77.44277,26.29559c-1.4,1.4 -2,3.3 -2,6.2c0,4.9 0.6,6 3.7,7.7c4,2 10.4,0.9 12.5,-2.3c1.3,-2 0.8,-9.1 -0.8,-11.4c-2.1,-3 -10.4,-3.2 -13.4,-0.2z" id="svg_3" fill="#3398db"/>
  <path d="m46.84277,44.19559c-3.5,1.5 -5.4,5.1 -5.4,10.4c0,4 0.5,5.3 2.9,7.8c2.4,2.4 3.8,2.9 7.6,2.9c5.9,0 8.3,-1.3 10.1,-5.7c1.9,-4.3 1,-11.5 -1.7,-13.9c-2.2,-1.9 -10.3,-2.8 -13.5,-1.5z" id="svg_4" fill="#3398db"/>
  <path d="m109.84277,47.89559c-5.8,1.3 -8.9,9.8 -6.1,16.7c1.8,4.3 4.7,5.7 11.3,5.7c3.7,0 5.1,-0.6 7.5,-2.9c2.5,-2.5 2.9,-3.7 2.9,-8.5c0,-7.3 -2.6,-10.4 -9,-11c-2.5,-0.2 -5.5,-0.2 -6.6,0z" id="svg_5" fill="#3398db"/>
  <path d="m16.24277,55.99559c-5.7,0.9 -10.7,9.3 -9.3,15.8c0.3,1.4 0.7,3.6 1,4.9c0.8,4.1 5.6,6.6 14.2,7.6c7.3,0.8 8,1.1 11.5,4.9c2.6,2.7 3.8,4.9 3.8,6.9c0,6.6 1.4,12.3 3.5,14.6c4.9,5.3 16.3,5.6 21.8,0.7c2.6,-2.4 3,-3.6 3.7,-10.4c1.2,-12.2 4.5,-15.5 16.6,-16.7c6.7,-0.7 8,-1.1 10.7,-3.8c2.7,-2.7 3.2,-4 3.5,-9.4c0.3,-5.4 0,-6.8 -2,-9.8c-2.9,-4.3 -7.7,-6.2 -14.2,-5.4c-8.7,0.9 -11.3,4.1 -12.3,15.2c-1,10.1 -6.6,15.2 -16.9,15.2c-10.2,0 -15.3,-5.1 -16.4,-16.7c-0.6,-5.7 -1.3,-8 -3,-9.9c-3.5,-3.6 -8.8,-4.8 -16.2,-3.7z" id="svg_6" fill="#3398db"/>
  <path d="m139.44277,56.29559c-5.8,1.4 -7.3,4.2 -8.5,15.3c-1.1,9.5 -6.9,14.7 -16.7,14.7c-5.6,0 -10.9,2.4 -12.7,5.7c-0.5,1.1 -1.3,4.8 -1.7,8.3c-0.3,3.6 -1.3,7.8 -2.1,9.3c-2,4.1 -7,6.7 -12.5,6.7c-10.8,0 -16.1,5 -16.1,15.1c0,9.3 4.7,13.9 14.4,13.9c8.7,0 13.9,-5.2 13.9,-13.9c0,-5.5 2,-10.1 5.8,-13.2c2.4,-2.1 4.5,-2.7 10.2,-3.2c11.3,-0.9 14,-3.6 15.1,-15c1,-10.7 6.2,-15.7 16.5,-15.7c5.7,0 11,-2.8 13.1,-7c3.1,-6.2 0.6,-17.2 -4.6,-19.9c-2.9,-1.6 -10,-2.1 -14.1,-1.1z" id="svg_7" fill="#3398db"/>
  <text fill="#3398db" stroke="#000" stroke-width="0" x="179.313643" y="88.513573" id="svg_26" font-size="65" font-family="Junction, sans-serif" text-anchor="start" xml:space="preserve" font-weight="bold" font-style="normal">Dens Technologies</text>
 </g>
</svg>